<?xml version="1.0" encoding="UTF-8"?>
<svg width="773.72" height="800" fill="none" version="1.1" viewBox="0 0 23.212 24" xmlns="http://www.w3.org/2000/svg">
 <path d="m11.606 0.033633a11.572 11.966 0 0 0-11.572 11.966 11.572 11.966 0 0 0 11.572 11.966 11.572 11.966 0 0 0 11.572-11.966 11.572 11.966 0 0 0-11.572-11.966zm-5.8338 5.2992h11.668c1.3707 0 2.5002 1.1295 2.5002 2.5002v8.334c0 1.3707-1.1295 2.5002-2.5002 2.5002h-11.668c-1.3707 0-2.5002-1.1295-2.5002-2.5002v-8.334c0-1.3707 1.1295-2.5002 2.5002-2.5002zm0 1.6668c-0.15672 0-0.30053 0.038723-0.42299 0.10764a0.8334 0.8334 0 0 1 0.089297 0.058359l5.1681 3.8757c0.59565 0.44672 1.4032 0.44672 1.9989 0l5.168-3.8756a0.8334 0.8334 0 0 1 0.089414-0.058418c-0.12248-0.068936-0.26636-0.10764-0.4231-0.10764h-11.668zm-0.83338 1.8755v7.2919c0 0.47612 0.35726 0.83338 0.83338 0.83338h11.668c0.47612 0 0.83338-0.35726 0.83338-0.83338v-7.2919l-4.6667 3.4993c-1.1823 0.88671-2.8186 0.88671-4.001 0l-4.6667-3.4993z" fill="#000"/>
</svg>
