<?xml version="1.0" encoding="UTF-8"?>
<svg width="286.92" height="286.9" version="1.1" viewBox="0 0 286.92 286.9" xmlns="http://www.w3.org/2000/svg">
 <path transform="translate(-238.08 -382.37)" d="m381.54 382.37a143.46 143.45 0 0 0-143.46 143.45 143.46 143.45 0 0 0 143.46 143.45 143.46 143.45 0 0 0 143.46-143.45 143.46 143.45 0 0 0-143.46-143.45zm-100.49 64.18h200.99c4.9055-3.4e-4 8.9277 4.0098 8.9277 8.918v140.69c0.00238 4.9097-4.0155 8.936-8.9277 8.9355h-200.99c-4.9117 4.3e-4 -8.9296-4.0263-8.9277-8.9355v-140.69c-4.8e-4 -4.9082 4.0222-8.9183 8.9277-8.918zm23.791 21.373 76.684 66.982 76.664-66.982h-153.35zm168.27 10.666-56.066 48.98 56.066 49.979v-98.959zm-183.13 0.05664v99.385l56.297-50.189-56.297-49.195zm113.53 60.756-16.121 14.092c-3.3523 2.926-8.3962 2.9262-11.748 0l-15.807-13.812-53.029 47.277h150.04l-53.338-47.557z" fill="#a09fa1"/>
</svg>
