<?xml version="1.0" encoding="UTF-8"?>
<svg class="svg-icon" width="896" height="896" fill="currentColor" overflow="hidden" version="1.1" viewBox="0 0 896 896" xmlns="http://www.w3.org/2000/svg">
 <path d="m321.02 642.37v-299.65h-99.648v299.68h99.616zm-49.824-340.61c34.72 0 56.384-23.04 56.384-51.808-0.64-29.376-21.664-51.744-55.68-51.744-34.144 0-56.384 22.4-56.384 51.744 0 28.8 21.632 51.84 55.072 51.84zm409.02 340.61v-171.81c0-92.064-49.152-134.91-114.66-134.91-52.928 0-76.608 29.12-89.792 49.504v-42.496h-99.616c1.312 28.16 0 299.71 0 299.71h99.616v-167.36c0-8.96 0.64-17.92 3.264-24.256 7.168-17.92 23.584-36.448 51.072-36.448 36.064 0 50.56 27.456 50.56 67.744v160.35h99.584zm-232.22-642.37c247.42 0 448 200.54 448 448 0 247.42-200.58 448-448 448-247.46 0-448-200.58-448-448 0-247.46 200.54-448 448-448z" fill="#a09fa1"/>
</svg>
