<?xml version="1.0" encoding="UTF-8"?>
<svg width="522.38" height="800" fill="currentColor" version="1.1" viewBox="0 0 250.9 384.25" xml:space="preserve"
	xmlns="http://www.w3.org/2000/svg">
	<path
		d="m125.45 0c-69.17 0-125.45 56.279-125.45 125.45 0 63.29 100.93 232.38 112.43 251.45 2.757 4.557 7.694 7.35 13.024 7.35s10.267-2.793 13.021-7.35c11.504-19.074 112.43-188.16 112.43-251.45 0-69.169-56.281-125.45-125.45-125.45zm0 339.1c-35.029-60.594-95.039-172.89-95.039-213.65 0-52.404 42.635-95.035 95.039-95.035s95.039 42.631 95.039 95.035c0 40.747-60.01 153.05-95.039 213.65z" />
	<path
		d="m125.45 53.214c-39.835 0-72.236 32.403-72.236 72.235 0 39.836 32.401 72.236 72.236 72.236 39.832 0 72.236-32.4 72.236-72.236 0-39.831-32.404-72.235-72.236-72.235zm0 114.06c-23.062 0-41.824-18.762-41.824-41.824 0-23.06 18.762-41.824 41.824-41.824 23.06 0 41.824 18.765 41.824 41.824 0 23.062-18.763 41.824-41.824 41.824z" />
</svg>