<?xml version="1.0" standalone="no"?>
<!DOCTYPE svg PUBLIC "-//W3C//DTD SVG 20010904//EN"
 "http://www.w3.org/TR/2001/REC-SVG-20010904/DTD/svg10.dtd">
<svg version="1.0" xmlns="http://www.w3.org/2000/svg"
 width="512.000000pt" height="512.000000pt" viewBox="0 0 512.000000 512.000000"
 preserveAspectRatio="xMidYMid meet">
<metadata>
Created by potrace 1.14, written by Peter Selinger 2001-2017
</metadata>
<g transform="translate(0.000000,512.000000) scale(0.100000,-0.100000)"
fill="#000000" stroke="none">
<path d="M2378 5115 c-2 -1 -34 -6 -73 -9 -189 -17 -434 -74 -639 -151 -605
-224 -1114 -684 -1402 -1268 -29 -59 -67 -147 -85 -195 -17 -48 -38 -101 -45
-118 -8 -17 -20 -58 -28 -90 -8 -32 -22 -84 -30 -114 -14 -49 -33 -140 -42
-195 -1 -11 -5 -36 -8 -55 -22 -131 -29 -543 -11 -650 3 -19 13 -78 21 -130
20 -123 78 -345 115 -438 16 -40 29 -78 29 -84 0 -33 212 -433 267 -503 4 -6
35 -46 67 -90 48 -64 182 -221 231 -270 39 -39 207 -186 240 -210 47 -35 51
-38 90 -68 63 -50 255 -163 380 -223 190 -91 430 -172 605 -204 30 -6 64 -12
75 -14 182 -36 609 -42 775 -12 14 3 41 7 60 10 123 19 329 72 445 116 44 16
83 30 88 30 20 0 305 145 398 202 503 313 875 775 1072 1333 48 137 97 325
112 431 3 21 7 48 10 59 19 93 27 457 13 605 -43 450 -232 931 -508 1291 -108
141 -194 235 -328 358 -265 241 -637 453 -962 547 -177 51 -306 79 -415 90
-33 4 -64 9 -69 12 -10 5 -442 13 -448 7z"/>
</g>
</svg>
